<svg id="svg" version="1.1" xmlns="http://www.w3.org/2000/svg" xmlns:xlink="http://www.w3.org/1999/xlink" width="400" height="400" viewBox="0, 0, 400,400"><g id="svgg"><path id="path0" d="M50.800 200.000 L 50.800 227.200 56.957 227.200 C 62.203 227.200,63.150 227.106,63.357 226.567 C 63.674 225.741,63.674 174.259,63.357 173.433 C 63.150 172.894,62.203 172.800,56.957 172.800 L 50.800 172.800 50.800 200.000 M84.571 173.189 C 84.356 173.404,82.793 173.844,81.096 174.169 C 79.181 174.535,77.676 175.071,77.130 175.580 C 76.645 176.031,76.131 176.400,75.986 176.400 C 75.601 176.400,72.800 179.181,72.800 179.563 C 72.800 179.742,72.305 180.588,71.700 181.444 C 70.159 183.624,69.969 196.447,71.454 198.068 C 71.924 198.580,72.432 199.410,72.584 199.910 C 72.909 200.981,75.497 203.600,76.231 203.600 C 76.510 203.600,77.247 204.022,77.869 204.537 C 79.848 206.177,84.626 206.431,115.230 206.519 L 143.059 206.600 144.730 207.706 C 147.059 209.248,147.097 210.981,144.839 212.769 L 143.278 214.005 108.247 214.011 C 88.980 214.014,72.672 214.126,72.008 214.258 L 70.800 214.500 70.800 220.850 L 70.800 227.200 107.564 227.200 C 143.132 227.200,144.411 227.174,146.864 226.405 C 148.259 225.968,149.744 225.608,150.165 225.605 C 151.019 225.599,154.820 223.317,155.323 222.508 C 155.501 222.222,155.965 221.675,156.354 221.294 C 156.744 220.912,157.650 219.362,158.368 217.850 L 159.673 215.099 159.536 209.391 C 159.427 204.817,159.270 203.535,158.747 202.941 C 158.387 202.534,157.709 201.435,157.238 200.500 C 156.768 199.565,156.238 198.800,156.059 198.800 C 155.881 198.800,155.494 198.350,155.200 197.800 C 154.906 197.250,154.450 196.800,154.188 196.800 C 153.926 196.800,153.054 196.353,152.249 195.808 C 149.322 193.821,145.588 193.600,114.953 193.600 C 96.914 193.600,87.161 193.460,87.000 193.200 C 86.864 192.980,86.341 192.800,85.838 192.800 C 83.203 192.800,82.754 189.137,85.158 187.234 L 86.715 186.000 121.932 186.000 C 143.845 186.000,157.535 185.853,158.174 185.610 L 159.200 185.220 159.200 179.899 C 159.200 175.730,159.065 174.385,158.577 173.689 L 157.955 172.800 121.457 172.800 C 98.322 172.800,84.817 172.943,84.571 173.189 M166.652 173.700 C 166.336 174.878,166.329 184.549,166.643 185.367 C 166.970 186.219,252.936 186.351,253.462 185.500 C 253.964 184.688,254.054 175.577,253.574 174.123 L 253.138 172.800 210.016 172.800 L 166.893 172.800 166.652 173.700 M261.423 173.689 C 260.935 174.385,260.800 175.730,260.800 179.899 L 260.800 185.220 261.826 185.610 C 262.959 186.041,345.822 186.176,347.950 185.750 L 349.200 185.500 349.200 179.630 C 349.200 175.598,349.050 173.610,348.720 173.280 C 348.353 172.913,338.129 172.800,305.143 172.800 L 262.045 172.800 261.423 173.689 M166.643 194.233 C 166.327 195.055,166.336 225.120,166.652 226.300 L 166.893 227.200 210.016 227.200 L 253.138 227.200 253.575 225.877 C 254.093 224.307,254.009 215.221,253.470 214.496 C 253.173 214.096,245.594 214.005,216.848 214.055 L 180.600 214.119 179.878 212.759 C 179.004 211.113,179.170 208.338,180.212 207.187 C 180.904 206.422,181.658 206.408,217.055 206.503 C 248.856 206.588,253.222 206.528,253.451 206.000 C 253.900 204.964,253.975 196.262,253.547 194.900 L 253.138 193.600 210.012 193.600 C 171.055 193.600,166.862 193.661,166.643 194.233 M261.689 194.223 L 260.800 194.845 260.800 210.394 C 260.800 223.996,260.879 226.022,261.429 226.571 C 262.324 227.467,348.020 227.540,348.762 226.645 C 349.074 226.270,349.187 224.248,349.111 220.374 L 349.000 214.657 347.800 214.332 C 347.140 214.154,330.673 214.021,311.208 214.037 L 275.815 214.066 274.908 213.011 C 273.995 211.949,273.648 209.151,274.306 208.156 C 275.479 206.383,275.096 206.400,312.280 206.395 C 331.596 206.392,347.805 206.281,348.300 206.148 C 349.603 205.799,349.718 194.706,348.426 194.014 C 347.009 193.255,262.781 193.458,261.689 194.223 " stroke="none" fill="#eff0f3" fill-rule="evenodd"></path><path id="path1" d="M0.000 200.000 L 0.000 400.000 200.000 400.000 L 400.000 400.000 400.000 200.000 L 400.000 0.000 200.000 0.000 L 0.000 0.000 0.000 200.000 M65.400 171.550 L 66.600 171.850 66.800 180.225 C 66.942 186.172,67.080 187.919,67.276 186.251 C 67.451 184.760,67.842 183.591,68.346 183.051 C 68.783 182.583,69.199 181.570,69.270 180.800 C 69.373 179.695,69.592 179.373,70.313 179.271 C 71.117 179.156,71.195 178.981,70.974 177.800 C 70.718 176.437,72.859 174.400,74.549 174.400 C 74.860 174.400,75.218 174.130,75.345 173.800 C 75.471 173.470,75.851 173.200,76.187 173.200 C 76.524 173.200,76.800 173.047,76.800 172.861 C 76.800 171.216,77.850 171.178,120.200 171.292 L 160.600 171.400 160.600 180.000 L 160.600 188.600 124.238 188.702 C 86.545 188.808,86.800 188.796,86.800 190.449 C 86.800 191.177,87.745 191.200,118.018 191.200 L 149.236 191.200 150.212 192.175 C 150.821 192.785,151.753 193.198,152.694 193.275 C 153.793 193.366,154.305 193.639,154.588 194.284 C 154.801 194.770,155.341 195.220,155.788 195.284 C 156.271 195.353,156.650 195.755,156.725 196.275 C 156.802 196.821,157.179 197.198,157.725 197.275 C 158.279 197.354,158.647 197.730,158.728 198.300 C 158.807 198.858,159.133 199.200,159.585 199.200 C 160.516 199.200,160.800 199.968,160.800 202.487 C 160.800 204.129,160.988 204.682,161.800 205.435 C 163.324 206.848,163.324 213.768,161.800 215.200 C 160.955 215.994,160.800 216.501,160.800 218.470 C 160.800 220.689,160.752 220.800,159.800 220.800 C 159.056 220.800,158.800 221.012,158.800 221.626 C 158.800 222.958,158.106 223.889,156.399 224.848 C 155.520 225.343,154.800 225.984,154.800 226.274 C 154.800 226.573,154.354 226.800,153.764 226.800 C 153.172 226.800,152.416 227.186,152.000 227.700 L 151.271 228.600 114.135 228.800 C 93.711 228.910,75.245 228.948,73.100 228.886 L 69.200 228.771 69.200 220.434 C 69.200 213.851,69.316 212.002,69.750 211.642 C 70.153 211.307,80.028 211.188,106.750 211.196 L 143.200 211.206 143.200 210.003 L 143.200 208.800 111.391 208.800 L 79.583 208.800 79.127 207.800 C 78.741 206.952,78.402 206.800,76.898 206.800 C 75.444 206.800,75.086 206.652,74.910 205.976 C 74.783 205.493,74.051 204.894,73.145 204.531 C 71.807 203.996,71.561 203.699,71.347 202.356 C 71.139 201.055,70.942 200.800,70.149 200.800 C 69.288 200.800,69.200 200.629,69.200 198.964 C 69.200 197.543,68.997 196.964,68.300 196.400 C 67.552 195.796,67.360 195.141,67.165 192.536 C 67.036 190.811,66.906 198.116,66.875 208.770 C 66.845 219.423,66.671 228.289,66.487 228.473 C 66.304 228.656,62.885 228.812,58.890 228.820 C 54.895 228.828,51.530 228.990,51.413 229.180 C 51.295 229.369,50.751 229.316,50.203 229.062 L 49.206 228.600 49.203 199.929 C 49.200 173.600,49.254 171.248,49.860 171.129 C 51.075 170.891,64.184 171.246,65.400 171.550 M254.424 171.199 C 256.862 171.201,256.959 171.544,256.911 180.032 C 256.871 186.942,256.792 187.817,256.157 188.281 C 254.777 189.290,165.016 189.016,164.000 188.000 C 163.012 187.012,162.747 172.474,163.702 171.682 C 164.518 171.004,165.189 170.996,210.200 171.099 C 233.960 171.154,253.861 171.199,254.424 171.199 M350.883 178.143 C 350.947 181.914,350.910 185.810,350.800 186.800 L 350.600 188.600 305.443 188.702 C 257.204 188.810,259.200 188.894,259.200 186.775 C 259.200 186.155,259.011 185.531,258.781 185.388 C 258.494 185.211,258.491 184.973,258.770 184.636 C 259.000 184.359,259.227 181.349,259.289 177.772 L 259.400 171.400 304.200 171.200 C 328.840 171.090,349.397 171.064,349.883 171.143 C 350.747 171.284,350.767 171.425,350.883 178.143 M256.108 191.766 C 257.216 192.873,257.376 206.931,256.296 208.300 C 255.986 208.694,247.915 208.800,218.351 208.800 L 180.800 208.800 180.800 209.990 L 180.800 211.179 217.876 211.194 C 249.379 211.206,255.084 211.294,255.828 211.782 C 256.656 212.324,256.712 212.703,256.869 218.852 C 257.098 227.851,256.977 228.564,255.202 228.733 C 254.432 228.806,253.594 229.039,253.337 229.252 C 253.034 229.504,252.780 229.491,252.610 229.216 C 252.429 228.924,238.850 228.797,208.424 228.803 C 184.266 228.809,164.208 228.701,163.850 228.564 C 162.731 228.134,162.874 193.126,164.000 192.000 C 165.057 190.943,255.057 190.714,256.108 191.766 M350.708 200.100 L 350.816 208.800 314.008 208.800 L 277.200 208.800 277.200 209.998 L 277.200 211.196 313.900 211.298 L 350.600 211.400 350.800 213.200 C 351.299 217.694,350.795 228.710,350.083 228.858 C 349.707 228.936,329.150 228.910,304.400 228.800 L 259.400 228.600 259.295 212.236 C 259.228 201.676,259.044 195.694,258.776 195.371 C 258.489 195.026,258.491 194.791,258.781 194.612 C 259.011 194.469,259.200 193.763,259.200 193.043 C 259.200 192.323,259.321 191.613,259.468 191.465 C 259.616 191.317,280.181 191.242,305.168 191.298 L 350.600 191.400 350.708 200.100 " stroke="none" fill="#0b0c34" fill-rule="evenodd"></path><path id="path2" d="M50.480 172.480 C 50.216 172.744,50.013 173.239,50.028 173.580 C 50.048 174.008,50.153 173.953,50.368 173.400 C 50.656 172.660,51.156 172.584,57.040 172.385 L 63.400 172.169 57.180 172.085 C 52.776 172.025,50.820 172.140,50.480 172.480 M102.900 172.300 C 112.965 172.359,129.435 172.359,139.500 172.300 C 149.565 172.240,141.330 172.192,121.200 172.192 C 101.070 172.192,92.835 172.240,102.900 172.300 M188.300 172.300 C 200.235 172.359,219.765 172.359,231.700 172.300 C 243.635 172.241,233.870 172.193,210.000 172.193 C 186.130 172.193,176.365 172.241,188.300 172.300 M283.500 172.300 C 295.435 172.359,314.965 172.359,326.900 172.300 C 338.835 172.241,329.070 172.193,305.200 172.193 C 281.330 172.193,271.565 172.241,283.500 172.300 M165.680 172.880 C 165.416 173.144,165.221 173.729,165.246 174.180 C 165.292 174.983,165.297 174.984,165.489 174.200 C 165.598 173.760,165.869 173.175,166.092 172.900 C 166.610 172.262,166.312 172.248,165.680 172.880 M159.762 179.400 C 159.762 182.920,159.824 184.306,159.898 182.481 C 159.972 180.656,159.972 177.776,159.897 176.081 C 159.822 174.386,159.761 175.880,159.762 179.400 M254.501 174.600 C 254.505 175.480,254.587 175.793,254.683 175.295 C 254.779 174.798,254.775 174.078,254.675 173.695 C 254.575 173.313,254.496 173.720,254.501 174.600 M260.124 176.200 C 260.126 177.520,260.201 178.012,260.290 177.293 C 260.379 176.574,260.377 175.494,260.286 174.893 C 260.195 174.292,260.122 174.880,260.124 176.200 M64.589 200.000 C 64.589 214.190,64.639 219.995,64.700 212.900 C 64.761 205.805,64.761 194.195,64.700 187.100 C 64.639 180.005,64.589 185.810,64.589 200.000 M164.937 179.800 C 164.939 181.560,165.009 182.230,165.093 181.289 C 165.178 180.349,165.177 178.909,165.091 178.089 C 165.005 177.270,164.936 178.040,164.937 179.800 M254.509 179.200 C 254.509 180.190,254.587 180.595,254.682 180.100 C 254.778 179.605,254.778 178.795,254.682 178.300 C 254.587 177.805,254.509 178.210,254.509 179.200 M254.509 183.200 C 254.509 184.190,254.587 184.595,254.682 184.100 C 254.778 183.605,254.778 182.795,254.682 182.300 C 254.587 181.805,254.509 182.210,254.509 183.200 M260.114 183.800 C 260.117 184.900,260.195 185.303,260.287 184.695 C 260.379 184.086,260.377 183.186,260.282 182.695 C 260.187 182.203,260.111 182.700,260.114 183.800 M165.425 185.721 C 165.984 187.177,166.681 187.200,210.000 187.200 C 253.367 187.200,254.017 187.178,254.578 185.711 C 254.784 185.170,254.649 185.215,254.009 185.900 L 253.169 186.800 210.110 186.800 L 167.052 186.800 166.104 185.909 C 165.355 185.206,165.212 185.167,165.425 185.721 M69.342 190.200 C 69.341 192.180,69.408 193.040,69.492 192.112 C 69.576 191.184,69.577 189.564,69.495 188.512 C 69.412 187.460,69.343 188.220,69.342 190.200 M86.661 187.100 C 86.558 187.265,87.493 187.349,88.737 187.287 C 92.644 187.092,93.115 186.922,89.924 186.860 C 88.232 186.827,86.763 186.935,86.661 187.100 M109.330 187.100 C 118.311 187.160,132.891 187.160,141.730 187.100 C 150.568 187.040,143.220 186.991,125.400 186.991 C 107.580 186.991,100.348 187.040,109.330 187.100 M283.300 187.100 C 295.125 187.159,314.475 187.159,326.300 187.100 C 338.125 187.041,328.450 186.993,304.800 186.993 C 281.150 186.993,271.475 187.041,283.300 187.100 M101.929 192.700 C 109.921 192.760,122.881 192.760,130.729 192.700 C 138.578 192.639,132.040 192.590,116.200 192.590 C 100.360 192.590,93.938 192.639,101.929 192.700 M187.931 192.700 C 199.662 192.759,218.742 192.759,230.331 192.700 C 241.919 192.641,232.320 192.593,209.000 192.593 C 185.680 192.593,176.199 192.641,187.931 192.700 M282.331 192.700 C 294.062 192.759,313.142 192.759,324.731 192.700 C 336.319 192.641,326.720 192.593,303.400 192.593 C 280.080 192.593,270.599 192.641,282.331 192.700 M347.200 192.555 C 347.200 192.640,347.730 192.787,348.379 192.882 C 349.027 192.977,349.467 192.908,349.355 192.728 C 349.157 192.407,347.200 192.250,347.200 192.555 M165.381 194.037 C 165.029 194.718,164.812 195.345,164.899 195.432 C 164.986 195.519,165.356 194.962,165.722 194.195 C 166.544 192.470,166.259 192.338,165.381 194.037 M260.182 210.400 C 260.182 219.310,260.235 222.955,260.300 218.500 C 260.364 214.045,260.364 206.755,260.300 202.300 C 260.235 197.845,260.182 201.490,260.182 210.400 M155.600 197.033 C 155.600 197.177,156.140 197.909,156.800 198.661 C 157.460 199.413,158.000 199.910,158.000 199.767 C 158.000 199.623,157.460 198.891,156.800 198.139 C 156.140 197.387,155.600 196.890,155.600 197.033 M254.520 200.000 C 254.520 201.210,254.595 201.705,254.687 201.100 C 254.778 200.495,254.778 199.505,254.687 198.900 C 254.595 198.295,254.520 198.790,254.520 200.000 M165.324 208.200 C 165.326 209.520,165.401 210.012,165.490 209.293 C 165.579 208.574,165.577 207.494,165.486 206.893 C 165.395 206.292,165.322 206.880,165.324 208.200 M84.905 207.487 C 85.514 207.579,86.414 207.577,86.905 207.482 C 87.397 207.387,86.900 207.311,85.800 207.314 C 84.700 207.317,84.297 207.395,84.905 207.487 M181.500 207.482 C 181.995 207.578,182.805 207.578,183.300 207.482 C 183.795 207.387,183.390 207.309,182.400 207.309 C 181.410 207.309,181.005 207.387,181.500 207.482 M142.800 207.886 C 143.130 208.008,143.760 208.274,144.200 208.476 C 144.987 208.838,144.988 208.834,144.224 208.222 C 143.796 207.880,143.166 207.614,142.824 207.632 C 142.285 207.659,142.282 207.693,142.800 207.886 M275.280 208.480 C 275.016 208.744,274.827 209.509,274.860 210.180 L 274.920 211.400 275.095 210.200 C 275.192 209.540,275.457 208.775,275.684 208.500 C 276.212 207.862,275.913 207.847,275.280 208.480 M145.293 210.000 C 145.293 210.770,145.375 211.085,145.476 210.700 C 145.576 210.315,145.576 209.685,145.476 209.300 C 145.375 208.915,145.293 209.230,145.293 210.000 M275.200 211.924 C 275.200 213.142,277.129 213.203,312.478 213.100 L 348.200 212.996 312.431 212.898 C 279.795 212.809,276.599 212.742,275.931 212.138 C 275.519 211.765,275.200 211.671,275.200 211.924 M180.757 212.919 C 180.933 213.094,182.410 213.182,184.039 213.115 L 187.000 212.993 183.718 212.796 C 181.913 212.688,180.580 212.743,180.757 212.919 M88.670 213.100 C 98.608 213.159,114.988 213.159,125.070 213.100 C 135.151 213.040,127.020 212.992,107.000 212.992 C 86.980 212.992,78.731 213.040,88.670 213.100 M219.977 213.100 L 252.953 213.205 253.977 214.102 L 255.000 215.000 254.030 213.900 L 253.061 212.800 220.030 212.898 L 187.000 212.995 219.977 213.100 M160.093 214.400 C 160.093 215.170,160.175 215.485,160.276 215.100 C 160.376 214.715,160.376 214.085,160.276 213.700 C 160.175 213.315,160.093 213.630,160.093 214.400 M158.581 218.837 C 158.229 219.518,158.012 220.145,158.099 220.232 C 158.186 220.319,158.556 219.762,158.922 218.995 C 159.744 217.270,159.459 217.138,158.581 218.837 M254.493 220.800 C 254.493 221.570,254.575 221.885,254.676 221.500 C 254.776 221.115,254.776 220.485,254.676 220.100 C 254.575 219.715,254.493 220.030,254.493 220.800 M254.464 225.251 C 254.391 226.916,253.891 227.457,252.200 227.705 L 251.000 227.880 252.238 227.940 C 253.913 228.021,254.907 226.886,254.692 225.137 L 254.528 223.800 254.464 225.251 M165.246 225.838 C 165.221 226.299,165.605 227.019,166.100 227.438 C 166.993 228.194,166.995 228.193,166.341 227.400 C 165.979 226.960,165.595 226.240,165.488 225.800 C 165.300 225.031,165.291 225.032,165.246 225.838 M64.000 226.746 C 64.000 227.010,63.595 227.389,63.100 227.588 C 62.491 227.832,62.410 227.957,62.851 227.975 C 63.591 228.003,64.647 226.914,64.257 226.524 C 64.116 226.382,64.000 226.482,64.000 226.746 M55.500 227.882 C 55.995 227.978,56.805 227.978,57.300 227.882 C 57.795 227.787,57.390 227.709,56.400 227.709 C 55.410 227.709,55.005 227.787,55.500 227.882 M80.482 227.896 C 81.958 227.973,84.478 227.973,86.082 227.897 C 87.687 227.821,86.480 227.758,83.400 227.758 C 80.320 227.757,79.007 227.819,80.482 227.896 M89.905 227.883 C 90.402 227.979,91.122 227.975,91.505 227.875 C 91.887 227.775,91.480 227.696,90.600 227.701 C 89.720 227.705,89.407 227.787,89.905 227.883 M98.105 227.887 C 98.714 227.979,99.614 227.977,100.105 227.882 C 100.597 227.787,100.100 227.711,99.000 227.714 C 97.900 227.717,97.497 227.795,98.105 227.887 M102.105 227.887 C 102.714 227.979,103.614 227.977,104.105 227.882 C 104.597 227.787,104.100 227.711,103.000 227.714 C 101.900 227.717,101.497 227.795,102.105 227.887 M106.105 227.887 C 106.714 227.979,107.614 227.977,108.105 227.882 C 108.597 227.787,108.100 227.711,107.000 227.714 C 105.900 227.717,105.497 227.795,106.105 227.887 M110.105 227.887 C 110.714 227.979,111.614 227.977,112.105 227.882 C 112.597 227.787,112.100 227.711,111.000 227.714 C 109.900 227.717,109.497 227.795,110.105 227.887 M114.105 227.887 C 114.714 227.979,115.614 227.977,116.105 227.882 C 116.597 227.787,116.100 227.711,115.000 227.714 C 113.900 227.717,113.497 227.795,114.105 227.887 M118.105 227.887 C 118.714 227.979,119.614 227.977,120.105 227.882 C 120.597 227.787,120.100 227.711,119.000 227.714 C 117.900 227.717,117.497 227.795,118.105 227.887 M122.105 227.887 C 122.714 227.979,123.614 227.977,124.105 227.882 C 124.597 227.787,124.100 227.711,123.000 227.714 C 121.900 227.717,121.497 227.795,122.105 227.887 M130.300 227.899 C 133.215 227.967,137.985 227.967,140.900 227.899 C 143.815 227.831,141.430 227.775,135.600 227.775 C 129.770 227.775,127.385 227.831,130.300 227.899 M178.080 227.898 C 179.994 227.971,183.234 227.971,185.280 227.898 C 187.326 227.826,185.760 227.766,181.800 227.765 C 177.840 227.765,176.166 227.824,178.080 227.898 M194.105 227.887 C 194.714 227.979,195.614 227.977,196.105 227.882 C 196.597 227.787,196.100 227.711,195.000 227.714 C 193.900 227.717,193.497 227.795,194.105 227.887 M198.105 227.887 C 198.714 227.979,199.614 227.977,200.105 227.882 C 200.597 227.787,200.100 227.711,199.000 227.714 C 197.900 227.717,197.497 227.795,198.105 227.887 M202.105 227.887 C 202.714 227.979,203.614 227.977,204.105 227.882 C 204.597 227.787,204.100 227.711,203.000 227.714 C 201.900 227.717,201.497 227.795,202.105 227.887 M206.105 227.887 C 206.714 227.979,207.614 227.977,208.105 227.882 C 208.597 227.787,208.100 227.711,207.000 227.714 C 205.900 227.717,205.497 227.795,206.105 227.887 M210.105 227.887 C 210.714 227.979,211.614 227.977,212.105 227.882 C 212.597 227.787,212.100 227.711,211.000 227.714 C 209.900 227.717,209.497 227.795,210.105 227.887 M214.105 227.887 C 214.714 227.979,215.614 227.977,216.105 227.882 C 216.597 227.787,216.100 227.711,215.000 227.714 C 213.900 227.717,213.497 227.795,214.105 227.887 M218.105 227.887 C 218.714 227.979,219.614 227.977,220.105 227.882 C 220.597 227.787,220.100 227.711,219.000 227.714 C 217.900 227.717,217.497 227.795,218.105 227.887 M227.322 227.899 C 229.699 227.970,233.479 227.969,235.722 227.898 C 237.965 227.827,236.020 227.769,231.400 227.769 C 226.780 227.770,224.945 227.828,227.322 227.899 M243.911 227.893 C 244.851 227.978,246.291 227.977,247.111 227.891 C 247.930 227.805,247.160 227.736,245.400 227.737 C 243.640 227.739,242.970 227.809,243.911 227.893 M271.323 227.899 C 273.920 227.969,278.060 227.968,280.523 227.898 C 282.985 227.828,280.860 227.771,275.800 227.772 C 270.740 227.772,268.725 227.829,271.323 227.899 M291.678 227.898 C 294.031 227.969,297.991 227.969,300.478 227.899 C 302.965 227.829,301.040 227.771,296.200 227.770 C 291.360 227.770,289.325 227.828,291.678 227.898 M306.105 227.887 C 306.714 227.979,307.614 227.977,308.105 227.882 C 308.597 227.787,308.100 227.711,307.000 227.714 C 305.900 227.717,305.497 227.795,306.105 227.887 M310.105 227.887 C 310.714 227.979,311.614 227.977,312.105 227.882 C 312.597 227.787,312.100 227.711,311.000 227.714 C 309.900 227.717,309.497 227.795,310.105 227.887 M314.105 227.887 C 314.714 227.979,315.614 227.977,316.105 227.882 C 316.597 227.787,316.100 227.711,315.000 227.714 C 313.900 227.717,313.497 227.795,314.105 227.887 M322.700 227.899 C 325.835 227.967,330.965 227.967,334.100 227.899 C 337.235 227.832,334.670 227.776,328.400 227.776 C 322.130 227.776,319.565 227.832,322.700 227.899 M342.700 227.882 C 343.195 227.978,344.005 227.978,344.500 227.882 C 344.995 227.787,344.590 227.709,343.600 227.709 C 342.610 227.709,342.205 227.787,342.700 227.882 " stroke="none" fill="#7b7c8c" fill-rule="evenodd"></path><path id="path3" d="M50.390 173.426 C 49.834 174.890,49.867 225.098,50.425 226.700 L 50.850 227.919 57.057 227.860 C 62.701 227.805,63.316 227.730,63.832 227.024 C 64.545 226.048,64.692 174.494,63.986 173.174 C 63.603 172.458,63.090 172.400,57.176 172.400 L 50.780 172.400 50.390 173.426 M82.800 172.816 C 77.021 174.155,73.829 176.437,71.075 181.200 L 69.803 183.400 69.801 189.800 C 69.800 196.035,69.829 196.258,70.932 198.435 C 72.053 200.647,74.714 204.000,75.348 204.000 C 75.529 204.000,76.226 204.391,76.897 204.869 C 80.238 207.248,81.489 207.337,113.600 207.471 C 140.084 207.582,143.129 207.660,144.300 208.260 C 146.053 209.158,146.081 210.724,144.369 212.164 L 143.139 213.200 107.018 213.200 L 70.897 213.200 70.410 214.377 C 69.744 215.984,69.990 226.552,70.711 227.271 C 71.524 228.083,145.919 227.812,147.887 226.989 C 148.663 226.665,149.579 226.400,149.923 226.400 C 155.336 226.400,160.151 218.797,160.180 210.200 L 160.200 204.600 158.845 202.000 C 154.153 192.995,153.258 192.800,116.501 192.800 C 89.738 192.800,85.215 192.637,84.640 191.651 C 83.697 190.032,83.990 188.816,85.565 187.822 L 87.184 186.800 122.366 186.800 C 144.257 186.800,157.936 186.653,158.574 186.410 L 159.600 186.020 159.600 179.453 C 159.600 173.833,159.509 172.851,158.967 172.643 C 158.010 172.276,84.410 172.443,82.800 172.816 M165.949 173.061 C 164.865 174.365,164.931 184.662,166.031 185.833 L 166.939 186.800 210.074 186.800 C 252.091 186.800,253.225 186.780,253.864 186.033 C 254.753 184.996,254.825 173.315,253.947 172.759 C 252.792 172.027,166.562 172.323,165.949 173.061 M260.863 172.753 C 260.092 173.241,260.009 185.247,260.769 186.163 C 261.247 186.738,265.524 186.800,305.040 186.800 L 348.782 186.800 349.429 185.813 C 350.126 184.749,350.166 173.965,349.476 172.900 C 349.094 172.310,261.790 172.165,260.863 172.753 M63.357 173.433 C 63.674 174.259,63.674 225.741,63.357 226.567 C 63.150 227.106,62.203 227.200,56.957 227.200 L 50.800 227.200 50.800 200.000 L 50.800 172.800 56.957 172.800 C 62.203 172.800,63.150 172.894,63.357 173.433 M158.577 173.689 C 159.065 174.385,159.200 175.730,159.200 179.899 L 159.200 185.220 158.174 185.610 C 157.535 185.853,143.845 186.000,121.932 186.000 L 86.715 186.000 85.158 187.234 C 82.754 189.137,83.203 192.800,85.838 192.800 C 86.341 192.800,86.864 192.980,87.000 193.200 C 87.161 193.460,96.914 193.600,114.953 193.600 C 145.588 193.600,149.322 193.821,152.249 195.808 C 153.054 196.353,153.926 196.800,154.188 196.800 C 154.450 196.800,154.906 197.250,155.200 197.800 C 155.494 198.350,155.881 198.800,156.059 198.800 C 156.238 198.800,156.768 199.565,157.238 200.500 C 157.709 201.435,158.387 202.534,158.747 202.941 C 159.270 203.535,159.427 204.817,159.536 209.391 L 159.673 215.099 158.368 217.850 C 157.650 219.362,156.744 220.912,156.354 221.294 C 155.965 221.675,155.501 222.222,155.323 222.508 C 154.820 223.317,151.019 225.599,150.165 225.605 C 149.744 225.608,148.259 225.968,146.864 226.405 C 144.411 227.174,143.132 227.200,107.564 227.200 L 70.800 227.200 70.800 220.850 L 70.800 214.500 72.008 214.258 C 72.672 214.126,88.980 214.014,108.247 214.011 L 143.278 214.005 144.839 212.769 C 147.097 210.981,147.059 209.248,144.730 207.706 L 143.059 206.600 115.230 206.519 C 84.626 206.431,79.848 206.177,77.869 204.537 C 77.247 204.022,76.510 203.600,76.231 203.600 C 75.497 203.600,72.909 200.981,72.584 199.910 C 72.432 199.410,71.924 198.580,71.454 198.068 C 69.969 196.447,70.159 183.624,71.700 181.444 C 72.305 180.588,72.800 179.742,72.800 179.563 C 72.800 179.181,75.601 176.400,75.986 176.400 C 76.131 176.400,76.645 176.031,77.130 175.580 C 77.676 175.071,79.181 174.535,81.096 174.169 C 82.793 173.844,84.356 173.404,84.571 173.189 C 84.817 172.943,98.322 172.800,121.457 172.800 L 157.955 172.800 158.577 173.689 M253.574 174.123 C 254.054 175.577,253.964 184.688,253.462 185.500 C 252.936 186.351,166.970 186.219,166.643 185.367 C 166.329 184.549,166.336 174.878,166.652 173.700 L 166.893 172.800 210.016 172.800 L 253.138 172.800 253.574 174.123 M348.720 173.280 C 349.050 173.610,349.200 175.598,349.200 179.630 L 349.200 185.500 347.950 185.750 C 345.822 186.176,262.959 186.041,261.826 185.610 L 260.800 185.220 260.800 179.899 C 260.800 175.730,260.935 174.385,261.423 173.689 L 262.045 172.800 305.143 172.800 C 338.129 172.800,348.353 172.913,348.720 173.280 M208.909 192.700 L 166.419 192.804 165.836 193.931 C 164.885 195.770,165.119 226.091,166.092 227.064 C 167.067 228.038,252.924 228.048,253.898 227.073 C 254.944 226.027,254.929 215.253,253.880 214.100 L 253.061 213.200 216.944 213.200 C 176.295 213.200,180.000 213.499,180.000 210.221 C 180.000 207.137,176.591 207.386,216.956 207.518 L 253.044 207.635 253.814 206.785 C 254.482 206.046,254.593 205.244,254.653 200.667 C 254.741 194.090,254.195 192.275,252.200 192.504 C 251.760 192.555,232.279 192.643,208.909 192.700 M303.346 192.692 L 260.892 192.804 260.652 193.702 C 260.208 195.355,260.367 227.132,260.820 227.412 C 261.616 227.904,348.851 227.709,349.346 227.214 C 350.142 226.420,350.211 215.382,349.429 214.187 L 348.782 213.200 312.667 213.200 C 272.772 213.200,275.309 213.380,274.926 210.526 C 274.511 207.430,272.004 207.631,312.697 207.508 C 341.641 207.421,348.863 207.297,349.280 206.880 C 349.922 206.238,350.031 193.859,349.400 193.261 C 348.705 192.603,346.708 192.579,303.346 192.692 M253.547 194.900 C 253.975 196.262,253.900 204.964,253.451 206.000 C 253.222 206.528,248.856 206.588,217.055 206.503 C 181.658 206.408,180.904 206.422,180.212 207.187 C 179.170 208.338,179.004 211.113,179.878 212.759 L 180.600 214.119 216.848 214.055 C 245.594 214.005,253.173 214.096,253.470 214.496 C 254.009 215.221,254.093 224.307,253.575 225.877 L 253.138 227.200 210.016 227.200 L 166.893 227.200 166.652 226.300 C 166.336 225.120,166.327 195.055,166.643 194.233 C 166.862 193.661,171.055 193.600,210.012 193.600 L 253.138 193.600 253.547 194.900 M348.426 194.014 C 349.718 194.706,349.603 205.799,348.300 206.148 C 347.805 206.281,331.596 206.392,312.280 206.395 C 275.096 206.400,275.479 206.383,274.306 208.156 C 273.648 209.151,273.995 211.949,274.908 213.011 L 275.815 214.066 311.208 214.037 C 330.673 214.021,347.140 214.154,347.800 214.332 L 349.000 214.657 349.111 220.374 C 349.187 224.248,349.074 226.270,348.762 226.645 C 348.020 227.540,262.324 227.467,261.429 226.571 C 260.879 226.022,260.800 223.996,260.800 210.394 L 260.800 194.845 261.689 194.223 C 262.781 193.458,347.009 193.255,348.426 194.014 " stroke="none" fill="#8c94ac" fill-rule="evenodd"></path><path id="path4" d="M158.200 172.289 C 158.640 172.398,159.270 172.692,159.600 172.943 C 160.122 173.340,160.128 173.309,159.651 172.700 C 159.349 172.315,158.719 172.021,158.251 172.046 C 157.443 172.090,157.440 172.103,158.200 172.289 M260.411 172.587 C 260.143 172.909,260.017 173.404,260.131 173.687 C 260.258 174.004,260.349 173.928,260.368 173.487 C 260.386 173.095,260.805 172.611,261.300 172.412 C 261.909 172.168,261.990 172.043,261.549 172.025 C 261.191 172.011,260.679 172.264,260.411 172.587 M165.280 172.880 C 165.016 173.144,164.831 174.179,164.870 175.180 L 164.940 177.000 165.097 175.208 C 165.184 174.222,165.445 173.187,165.676 172.908 C 166.211 172.264,165.917 172.243,165.280 172.880 M254.800 179.426 C 254.800 182.695,254.615 185.636,254.378 186.126 C 253.970 186.970,253.977 186.974,254.578 186.224 C 255.175 185.478,255.572 173.600,255.000 173.600 C 254.890 173.600,254.800 176.222,254.800 179.426 M350.159 179.600 C 350.159 182.790,350.221 184.095,350.297 182.500 C 350.373 180.905,350.373 178.295,350.297 176.700 C 350.221 175.105,350.159 176.410,350.159 179.600 M49.789 200.000 C 49.789 214.190,49.839 219.995,49.900 212.900 C 49.961 205.805,49.961 194.195,49.900 187.100 C 49.839 180.005,49.789 185.810,49.789 200.000 M160.109 176.800 C 160.109 177.790,160.187 178.195,160.282 177.700 C 160.378 177.205,160.378 176.395,160.282 175.900 C 160.187 175.405,160.109 175.810,160.109 176.800 M73.381 177.300 L 71.800 179.000 73.500 177.419 C 75.081 175.948,75.384 175.600,75.081 175.600 C 75.016 175.600,74.251 176.365,73.381 177.300 M160.128 182.000 C 160.128 183.430,160.201 184.015,160.289 183.300 C 160.378 182.585,160.378 181.415,160.289 180.700 C 160.201 179.985,160.128 180.570,160.128 182.000 M164.850 184.024 C 164.823 184.806,165.083 185.796,165.430 186.224 C 165.776 186.651,165.917 186.730,165.744 186.400 C 165.570 186.070,165.309 185.080,165.164 184.200 L 164.900 182.600 164.850 184.024 M349.342 186.319 C 348.944 186.950,346.081 187.015,310.156 187.209 L 271.400 187.418 310.086 187.409 C 346.186 187.401,348.818 187.354,349.462 186.710 C 349.842 186.330,350.067 185.933,349.962 185.829 C 349.857 185.724,349.578 185.945,349.342 186.319 M260.719 186.841 C 261.091 187.241,262.396 187.415,265.319 187.453 L 269.400 187.506 265.400 187.251 C 263.200 187.110,261.130 186.835,260.800 186.639 C 260.302 186.343,260.288 186.377,260.719 186.841 M89.800 187.200 C 88.040 187.310,86.240 187.639,85.800 187.930 L 85.000 188.460 85.800 188.130 C 86.240 187.949,102.740 187.710,122.467 187.600 C 142.194 187.490,158.424 187.310,158.534 187.200 C 158.644 187.090,143.943 187.000,125.867 187.000 C 107.790 187.000,91.560 187.090,89.800 187.200 M166.741 187.301 C 166.943 187.503,167.533 187.601,168.054 187.519 C 168.855 187.393,168.798 187.337,167.687 187.152 C 166.893 187.021,166.519 187.079,166.741 187.301 M214.400 187.200 L 175.400 187.406 214.276 187.503 C 239.868 187.567,253.237 187.463,253.400 187.200 C 253.536 186.980,253.592 186.844,253.524 186.897 C 253.456 186.950,235.850 187.087,214.400 187.200 M170.291 187.489 C 171.001 187.577,172.261 187.579,173.091 187.492 C 173.921 187.405,173.340 187.333,171.800 187.331 C 170.260 187.329,169.581 187.400,170.291 187.489 M68.934 190.400 C 68.934 192.050,69.005 192.725,69.091 191.900 C 69.178 191.075,69.178 189.725,69.091 188.900 C 69.005 188.075,68.934 188.750,68.934 190.400 M101.129 192.300 C 109.121 192.360,122.081 192.360,129.929 192.300 C 137.778 192.239,131.240 192.190,115.400 192.190 C 99.560 192.190,93.138 192.239,101.129 192.300 M165.782 192.982 C 165.242 193.522,164.807 194.197,164.816 194.482 C 164.825 194.767,165.101 194.505,165.429 193.900 C 165.757 193.295,166.065 192.757,166.113 192.704 C 166.161 192.652,185.820 192.515,209.800 192.401 L 253.400 192.193 210.082 192.096 L 166.764 192.000 165.782 192.982 M283.500 192.300 C 295.435 192.359,314.965 192.359,326.900 192.300 C 338.835 192.241,329.070 192.193,305.200 192.193 C 281.330 192.193,271.565 192.241,283.500 192.300 M151.233 194.131 C 151.913 194.663,154.400 196.025,154.400 195.865 C 154.400 195.606,151.805 194.000,151.386 194.000 C 151.210 194.000,151.142 194.059,151.233 194.131 M254.888 200.056 C 254.814 204.956,254.686 206.050,254.100 206.760 L 253.400 207.608 217.000 207.707 L 180.600 207.806 217.157 207.803 L 253.714 207.800 254.468 206.789 C 255.142 205.887,255.210 205.155,255.100 199.989 L 254.976 194.200 254.888 200.056 M350.159 200.000 C 350.159 203.190,350.221 204.495,350.297 202.900 C 350.373 201.305,350.373 198.695,350.297 197.100 C 350.221 195.505,350.159 196.810,350.159 200.000 M164.944 199.200 C 164.944 201.290,165.012 202.145,165.094 201.100 C 165.176 200.055,165.176 198.345,165.094 197.300 C 165.012 196.255,164.944 197.110,164.944 199.200 M73.400 202.800 C 74.259 203.680,75.052 204.400,75.162 204.400 C 75.272 204.400,74.659 203.680,73.800 202.800 C 72.941 201.920,72.148 201.200,72.038 201.200 C 71.928 201.200,72.541 201.920,73.400 202.800 M164.894 214.838 L 164.800 226.676 165.700 227.438 C 166.598 228.198,166.598 228.198,165.906 227.375 C 165.288 226.641,165.200 225.264,165.100 214.775 L 164.987 203.000 164.894 214.838 M349.463 206.981 C 349.253 207.527,345.177 207.607,313.113 207.700 L 277.000 207.804 313.051 207.902 C 349.989 208.002,351.289 207.956,349.906 206.573 C 349.792 206.459,349.593 206.642,349.463 206.981 M82.000 207.182 C 82.330 207.405,82.945 207.591,83.367 207.594 C 84.390 207.602,84.071 207.373,82.600 207.044 C 81.724 206.848,81.562 206.885,82.000 207.182 M99.100 207.900 C 107.075 207.960,120.125 207.960,128.100 207.900 C 136.075 207.839,129.550 207.790,113.600 207.790 C 97.650 207.790,91.125 207.839,99.100 207.900 M180.093 210.000 C 180.093 210.770,180.175 211.085,180.276 210.700 C 180.376 210.315,180.376 209.685,180.276 209.300 C 180.175 208.915,180.093 209.230,180.093 210.000 M275.260 210.438 C 275.203 211.416,276.235 212.800,277.020 212.800 C 277.217 212.800,276.990 212.528,276.515 212.196 C 276.041 211.863,275.577 211.098,275.486 210.496 L 275.320 209.400 275.260 210.438 M160.509 212.000 C 160.509 212.990,160.587 213.395,160.682 212.900 C 160.778 212.405,160.778 211.595,160.682 211.100 C 160.587 210.605,160.509 211.010,160.509 212.000 M72.100 212.676 C 72.485 212.776,73.115 212.776,73.500 212.676 C 73.885 212.575,73.570 212.493,72.800 212.493 C 72.030 212.493,71.715 212.575,72.100 212.676 M248.300 212.682 C 248.795 212.778,249.605 212.778,250.100 212.682 C 250.595 212.587,250.190 212.509,249.200 212.509 C 248.210 212.509,247.805 212.587,248.300 212.682 M252.051 212.682 C 254.409 213.045,254.766 214.038,254.900 220.614 L 255.023 226.600 255.112 220.558 C 255.211 213.746,254.685 212.322,252.119 212.460 L 251.000 212.520 252.051 212.682 M325.491 212.689 C 326.201 212.777,327.461 212.779,328.291 212.692 C 329.121 212.605,328.540 212.533,327.000 212.531 C 325.460 212.529,324.781 212.600,325.491 212.689 M344.500 212.676 C 344.885 212.776,345.515 212.776,345.900 212.676 C 346.285 212.575,345.970 212.493,345.200 212.493 C 344.430 212.493,344.115 212.575,344.500 212.676 M348.700 213.212 C 349.195 213.411,349.600 213.790,349.600 214.054 C 349.600 214.318,349.716 214.418,349.857 214.276 C 350.247 213.886,349.191 212.797,348.451 212.825 C 348.010 212.843,348.091 212.968,348.700 213.212 M350.159 220.400 C 350.159 223.590,350.221 224.895,350.297 223.300 C 350.373 221.705,350.373 219.095,350.297 217.500 C 350.221 215.905,350.159 217.210,350.159 220.400 M69.744 221.600 C 69.744 223.690,69.812 224.545,69.894 223.500 C 69.976 222.455,69.976 220.745,69.894 219.700 C 69.812 218.655,69.744 219.510,69.744 221.600 M64.446 226.220 C 64.421 226.671,64.221 227.257,64.001 227.521 C 63.782 227.786,63.890 227.753,64.240 227.449 C 64.590 227.144,64.790 226.558,64.685 226.147 C 64.512 225.474,64.488 225.481,64.446 226.220 M147.200 227.425 C 146.309 227.762,146.091 227.958,146.600 227.963 C 147.040 227.968,147.850 227.714,148.400 227.400 C 149.622 226.701,149.083 226.713,147.200 227.425 M50.349 227.700 C 50.748 228.209,51.402 228.381,52.749 228.330 L 54.600 228.260 52.808 228.103 C 51.822 228.016,50.742 227.732,50.408 227.472 C 49.877 227.060,49.869 227.088,50.349 227.700 M57.300 228.294 C 58.345 228.376,60.055 228.376,61.100 228.294 C 62.145 228.212,61.290 228.144,59.200 228.144 C 57.110 228.144,56.255 228.212,57.300 228.294 M73.712 228.295 C 74.764 228.377,76.384 228.376,77.312 228.292 C 78.240 228.208,77.380 228.141,75.400 228.142 C 73.420 228.143,72.660 228.212,73.712 228.295 M92.329 228.300 C 99.660 228.361,111.540 228.361,118.729 228.300 C 125.918 228.239,119.920 228.189,105.400 228.189 C 90.880 228.189,84.998 228.239,92.329 228.300 M138.300 228.293 C 139.235 228.377,140.765 228.377,141.700 228.293 C 142.635 228.209,141.870 228.140,140.000 228.140 C 138.130 228.140,137.365 228.209,138.300 228.293 M186.500 228.300 C 197.445 228.359,215.355 228.359,226.300 228.300 C 237.245 228.241,228.290 228.192,206.400 228.192 C 184.510 228.192,175.555 228.241,186.500 228.300 M248.900 228.291 C 249.725 228.378,251.075 228.378,251.900 228.291 C 252.725 228.205,252.050 228.134,250.400 228.134 C 248.750 228.134,248.075 228.205,248.900 228.291 M283.500 228.300 C 295.435 228.359,314.965 228.359,326.900 228.300 C 338.835 228.241,329.070 228.193,305.200 228.193 C 281.330 228.193,271.565 228.241,283.500 228.300 " stroke="none" fill="#6c6c84" fill-rule="evenodd"></path><path id="path5" d="M64.056 172.365 L 65.000 173.130 65.000 200.141 C 65.000 214.998,65.132 226.796,65.294 226.358 C 65.455 225.921,65.597 213.963,65.609 199.784 C 65.630 173.812,65.581 172.801,64.240 171.906 C 63.304 171.281,63.160 171.639,64.056 172.365 M82.500 171.876 C 82.885 171.976,83.515 171.976,83.900 171.876 C 84.285 171.775,83.970 171.693,83.200 171.693 C 82.430 171.693,82.115 171.775,82.500 171.876 M164.829 172.654 C 164.074 173.614,164.000 174.244,164.000 179.694 L 164.000 185.680 165.360 187.040 C 166.108 187.788,167.053 188.393,167.460 188.384 C 167.947 188.374,167.773 188.183,166.951 187.825 C 164.631 186.815,164.400 186.062,164.400 179.493 C 164.400 173.731,164.428 173.536,165.382 172.582 C 165.922 172.042,166.205 171.600,166.011 171.600 C 165.817 171.600,165.285 172.074,164.829 172.654 M254.389 172.311 C 255.075 172.866,255.341 173.673,255.609 176.011 L 255.952 179.000 255.829 176.090 C 255.709 173.269,254.990 171.600,253.894 171.600 C 253.683 171.600,253.906 171.920,254.389 172.311 M79.949 172.665 C 79.447 173.274,79.485 173.287,80.400 172.811 C 81.741 172.114,81.842 172.000,81.116 172.000 C 80.776 172.000,80.251 172.299,79.949 172.665 M350.514 176.200 C 350.517 177.300,350.595 177.703,350.687 177.095 C 350.779 176.486,350.777 175.586,350.682 175.095 C 350.587 174.603,350.511 175.100,350.514 176.200 M255.679 181.867 C 255.636 183.444,255.496 185.064,255.370 185.467 C 255.156 186.148,255.171 186.151,255.587 185.504 C 255.850 185.096,255.978 183.608,255.897 181.904 L 255.759 179.000 255.679 181.867 M160.514 181.800 C 160.517 182.900,160.595 183.303,160.687 182.695 C 160.779 182.086,160.777 181.186,160.682 180.695 C 160.587 180.203,160.511 180.700,160.514 181.800 M350.501 181.400 C 350.505 182.280,350.587 182.593,350.683 182.095 C 350.779 181.598,350.775 180.878,350.675 180.495 C 350.575 180.113,350.496 180.520,350.501 181.400 M68.398 187.208 C 67.834 189.560,68.035 193.397,68.759 194.114 C 69.147 194.498,69.161 194.363,68.825 193.474 C 68.281 192.033,68.284 189.034,68.831 187.062 C 69.066 186.217,69.175 185.442,69.074 185.341 C 68.973 185.240,68.669 186.080,68.398 187.208 M349.700 186.788 C 349.442 187.202,348.819 187.619,348.315 187.716 C 347.502 187.872,347.521 187.897,348.486 187.946 C 349.214 187.982,349.719 187.725,350.018 187.166 C 350.588 186.102,350.324 185.790,349.700 186.788 M254.399 187.002 C 254.124 187.332,253.337 187.766,252.650 187.966 C 251.691 188.244,251.604 188.336,252.278 188.364 C 252.760 188.384,253.660 187.956,254.278 187.413 C 254.895 186.870,255.287 186.420,255.149 186.413 C 255.011 186.406,254.673 186.671,254.399 187.002 M159.380 187.161 C 159.171 187.360,158.640 187.609,158.200 187.715 C 157.441 187.897,157.444 187.910,158.251 187.954 C 158.719 187.979,159.326 187.730,159.600 187.400 C 160.143 186.746,159.991 186.581,159.380 187.161 M91.505 188.283 C 92.002 188.379,92.722 188.375,93.105 188.275 C 93.487 188.175,93.080 188.096,92.200 188.101 C 91.320 188.105,91.007 188.187,91.505 188.283 M152.500 188.276 C 152.885 188.376,153.515 188.376,153.900 188.276 C 154.285 188.175,153.970 188.093,153.200 188.093 C 152.430 188.093,152.115 188.175,152.500 188.276 M181.511 188.293 C 182.451 188.378,183.891 188.377,184.711 188.291 C 185.530 188.205,184.760 188.136,183.000 188.137 C 181.240 188.139,180.570 188.209,181.511 188.293 M220.900 188.276 C 221.285 188.376,221.915 188.376,222.300 188.276 C 222.685 188.175,222.370 188.093,221.600 188.093 C 220.830 188.093,220.515 188.175,220.900 188.276 M226.300 188.289 C 227.015 188.378,228.185 188.378,228.900 188.289 C 229.615 188.201,229.030 188.128,227.600 188.128 C 226.170 188.128,225.585 188.201,226.300 188.289 M246.691 188.289 C 247.401 188.377,248.661 188.379,249.491 188.292 C 250.321 188.205,249.740 188.133,248.200 188.131 C 246.660 188.129,245.981 188.200,246.691 188.289 M316.900 188.276 C 317.285 188.376,317.915 188.376,318.300 188.276 C 318.685 188.175,318.370 188.093,317.600 188.093 C 316.830 188.093,316.515 188.175,316.900 188.276 M325.712 188.295 C 326.764 188.377,328.384 188.376,329.312 188.292 C 330.240 188.208,329.380 188.141,327.400 188.142 C 325.420 188.143,324.660 188.212,325.712 188.295 M343.700 188.287 C 344.305 188.378,345.295 188.378,345.900 188.287 C 346.505 188.195,346.010 188.120,344.800 188.120 C 343.590 188.120,343.095 188.195,343.700 188.287 M101.270 191.900 C 109.339 191.960,122.659 191.960,130.870 191.900 C 139.082 191.839,132.480 191.790,116.200 191.790 C 99.920 191.790,93.202 191.839,101.270 191.900 M210.040 191.900 L 253.879 192.004 254.640 192.842 C 256.377 194.759,255.812 207.225,253.961 207.812 C 253.509 207.956,253.218 208.151,253.313 208.246 C 253.408 208.341,253.788 208.303,254.158 208.161 C 256.827 207.137,256.881 193.752,254.223 191.906 C 253.990 191.744,234.090 191.654,210.000 191.704 L 166.200 191.796 210.040 191.900 M260.262 192.331 C 259.898 192.734,259.603 193.319,259.606 193.631 C 259.609 193.944,259.839 193.750,260.118 193.200 L 260.624 192.200 303.612 191.997 L 346.600 191.795 303.762 191.697 C 262.701 191.604,260.897 191.630,260.262 192.331 M348.000 191.891 C 348.550 191.991,349.315 192.354,349.700 192.698 C 350.570 193.476,350.629 193.086,349.771 192.229 C 349.426 191.883,348.661 191.625,348.071 191.654 L 347.000 191.709 348.000 191.891 M147.146 192.616 C 147.886 192.937,148.606 193.194,148.746 193.186 C 149.266 193.157,146.976 192.028,146.400 192.030 C 146.070 192.031,146.406 192.294,147.146 192.616 M164.829 193.054 C 164.018 194.085,164.002 194.457,164.089 210.154 L 164.178 226.200 164.389 209.941 C 164.587 194.680,164.647 193.631,165.362 192.841 C 165.781 192.379,166.019 192.000,165.891 192.000 C 165.763 192.000,165.285 192.474,164.829 193.054 M350.550 198.600 C 350.551 201.020,350.616 201.958,350.696 200.685 C 350.776 199.412,350.775 197.432,350.694 196.285 C 350.614 195.138,350.549 196.180,350.550 198.600 M350.493 204.400 C 350.493 205.170,350.575 205.485,350.676 205.100 C 350.776 204.715,350.776 204.085,350.676 203.700 C 350.575 203.315,350.493 203.630,350.493 204.400 M80.857 207.396 C 81.322 207.884,82.313 208.124,84.257 208.219 L 87.000 208.353 84.600 208.045 C 83.280 207.876,81.750 207.506,81.200 207.222 C 80.260 206.737,80.239 206.748,80.857 207.396 M350.000 207.146 C 350.000 207.410,349.595 207.789,349.100 207.988 C 348.491 208.232,348.410 208.357,348.851 208.375 C 349.591 208.403,350.647 207.314,350.257 206.924 C 350.116 206.782,350.000 206.882,350.000 207.146 M160.920 210.000 C 160.920 211.210,160.995 211.705,161.087 211.100 C 161.178 210.495,161.178 209.505,161.087 208.900 C 160.995 208.295,160.920 208.790,160.920 210.000 M143.398 211.603 C 143.234 211.869,130.823 212.003,106.875 211.996 C 73.109 211.986,70.565 212.033,70.100 212.669 C 69.334 213.717,69.506 214.203,70.300 213.233 L 71.000 212.378 107.048 212.392 C 138.699 212.405,143.158 212.333,143.597 211.803 C 143.873 211.471,143.997 211.200,143.873 211.200 C 143.749 211.200,143.535 211.381,143.398 211.603 M182.700 212.295 C 183.855 212.376,185.745 212.376,186.900 212.295 C 188.055 212.214,187.110 212.148,184.800 212.148 C 182.490 212.148,181.545 212.214,182.700 212.295 M205.130 212.300 C 214.001 212.360,228.401 212.360,237.130 212.300 C 245.858 212.240,238.600 212.191,221.000 212.191 C 203.400 212.191,196.258 212.240,205.130 212.300 M254.084 212.910 C 256.080 214.792,256.365 226.090,254.456 227.636 C 253.936 228.056,253.683 228.400,253.894 228.400 C 257.068 228.400,256.793 213.070,253.600 212.075 C 253.270 211.972,253.488 212.348,254.084 212.910 M313.000 212.294 L 349.000 212.392 349.700 213.240 C 350.480 214.185,350.619 213.957,349.986 212.774 C 349.581 212.016,348.804 212.002,313.286 212.098 L 277.000 212.196 313.000 212.294 M350.493 215.600 C 350.493 216.370,350.575 216.685,350.676 216.300 C 350.776 215.915,350.776 215.285,350.676 214.900 C 350.575 214.515,350.493 214.830,350.493 215.600 M350.509 218.800 C 350.509 219.790,350.587 220.195,350.682 219.700 C 350.778 219.205,350.778 218.395,350.682 217.900 C 350.587 217.405,350.509 217.810,350.509 218.800 M350.514 223.800 C 350.517 224.900,350.595 225.303,350.687 224.695 C 350.779 224.086,350.777 223.186,350.682 222.695 C 350.587 222.203,350.511 222.700,350.514 223.800 M164.432 226.886 C 164.414 227.263,164.805 227.768,165.300 228.008 C 166.063 228.378,166.104 228.365,165.565 227.922 C 165.216 227.635,164.825 227.130,164.696 226.800 C 164.507 226.314,164.457 226.330,164.432 226.886 M149.024 227.413 C 148.596 227.736,147.876 228.021,147.424 228.046 C 146.789 228.082,146.754 228.134,147.273 228.271 C 147.900 228.436,150.400 227.412,150.400 226.990 C 150.400 226.639,149.805 226.821,149.024 227.413 M344.200 228.400 L 339.000 228.637 344.000 228.712 C 346.750 228.754,349.270 228.613,349.600 228.400 C 349.930 228.187,350.020 228.046,349.800 228.088 C 349.580 228.129,347.060 228.270,344.200 228.400 M57.305 228.687 C 57.914 228.779,58.814 228.777,59.305 228.682 C 59.797 228.587,59.300 228.511,58.200 228.514 C 57.100 228.517,56.697 228.595,57.305 228.687 M74.291 228.689 C 75.001 228.777,76.261 228.779,77.091 228.692 C 77.921 228.605,77.340 228.533,75.800 228.531 C 74.260 228.529,73.581 228.600,74.291 228.689 M92.500 228.700 C 99.265 228.761,110.335 228.761,117.100 228.700 C 123.865 228.638,118.330 228.588,104.800 228.588 C 91.270 228.588,85.735 228.638,92.500 228.700 M141.105 228.683 C 141.602 228.779,142.322 228.775,142.705 228.675 C 143.087 228.575,142.680 228.496,141.800 228.501 C 140.920 228.505,140.607 228.587,141.105 228.683 M186.330 228.700 C 197.402 228.759,215.402 228.759,226.330 228.700 C 237.259 228.641,228.200 228.592,206.200 228.592 C 184.200 228.592,175.259 228.641,186.330 228.700 M249.500 228.689 C 250.215 228.778,251.385 228.778,252.100 228.689 C 252.815 228.601,252.230 228.528,250.800 228.528 C 249.370 228.528,248.785 228.601,249.500 228.689 M262.500 228.691 C 263.325 228.778,264.675 228.778,265.500 228.691 C 266.325 228.605,265.650 228.534,264.000 228.534 C 262.350 228.534,261.675 228.605,262.500 228.691 M285.730 228.700 C 295.372 228.760,311.032 228.760,320.530 228.700 C 330.029 228.640,322.140 228.591,303.000 228.591 C 283.860 228.591,276.089 228.640,285.730 228.700 " stroke="none" fill="#444864" fill-rule="evenodd"></path><path id="path6" d="M53.919 171.898 C 55.744 171.972,58.624 171.972,60.319 171.897 C 62.014 171.822,60.520 171.761,57.000 171.762 C 53.480 171.762,52.094 171.824,53.919 171.898 M102.700 171.900 C 112.875 171.959,129.525 171.959,139.700 171.900 C 149.875 171.840,141.550 171.792,121.200 171.792 C 100.850 171.792,92.525 171.840,102.700 171.900 M165.725 172.300 C 165.306 172.685,165.223 172.820,165.543 172.600 C 165.916 172.342,181.728 172.128,209.961 171.996 L 253.800 171.793 210.144 171.696 C 169.047 171.606,166.444 171.641,165.725 172.300 M305.188 171.997 L 349.376 172.200 349.882 173.200 C 350.198 173.824,350.390 173.960,350.394 173.562 C 350.413 171.507,352.486 171.592,304.969 171.697 L 261.000 171.795 305.188 171.997 M159.465 172.400 C 159.720 172.730,160.008 173.540,160.105 174.200 L 160.280 175.400 160.340 174.149 C 160.377 173.377,160.132 172.688,159.700 172.349 C 159.091 171.871,159.060 171.878,159.465 172.400 M259.762 179.400 C 259.762 182.920,259.824 184.306,259.898 182.481 C 259.972 180.656,259.972 177.776,259.897 176.081 C 259.822 174.386,259.761 175.880,259.762 179.400 M164.480 179.531 L 164.400 185.662 165.569 186.831 C 166.684 187.946,168.506 188.399,168.955 187.672 C 169.067 187.492,168.672 187.407,168.079 187.482 C 165.478 187.813,165.024 186.746,164.780 179.724 L 164.560 173.400 164.480 179.531 M64.940 177.600 C 64.940 179.470,65.009 180.235,65.093 179.300 C 65.177 178.365,65.177 176.835,65.093 175.900 C 65.009 174.965,64.940 175.730,64.940 177.600 M255.358 179.800 C 255.358 182.880,255.421 184.087,255.497 182.482 C 255.573 180.878,255.573 178.358,255.496 176.882 C 255.419 175.407,255.357 176.720,255.358 179.800 M64.931 184.200 C 64.933 185.740,65.005 186.321,65.092 185.491 C 65.179 184.661,65.177 183.401,65.089 182.691 C 65.000 181.981,64.929 182.660,64.931 184.200 M159.901 185.454 C 159.444 187.635,160.068 187.599,122.040 187.606 C 102.768 187.609,86.792 187.744,86.538 187.906 C 85.995 188.252,154.997 188.135,157.508 187.786 C 159.346 187.531,160.595 186.255,160.315 184.920 C 160.215 184.441,160.076 184.620,159.901 185.454 M254.030 186.684 L 253.060 187.612 211.477 187.593 C 188.606 187.582,169.797 187.669,169.680 187.787 C 169.563 187.904,188.297 188.000,211.311 188.000 L 253.155 188.000 254.278 187.034 C 254.895 186.503,255.310 185.998,255.200 185.912 C 255.090 185.827,254.564 186.174,254.030 186.684 M260.086 186.400 C 260.547 187.958,260.743 187.965,304.990 187.918 C 328.535 187.893,347.170 187.811,346.400 187.734 C 345.630 187.658,326.130 187.552,303.068 187.498 C 261.665 187.401,261.128 187.390,260.522 186.600 C 260.164 186.133,259.982 186.050,260.086 186.400 M64.953 192.200 C 64.953 194.840,65.018 195.868,65.097 194.484 C 65.175 193.101,65.174 190.941,65.095 189.684 C 65.016 188.428,64.952 189.560,64.953 192.200 M68.528 190.400 C 68.528 191.830,68.601 192.415,68.689 191.700 C 68.778 190.985,68.778 189.815,68.689 189.100 C 68.601 188.385,68.528 188.970,68.528 190.400 M145.800 192.592 C 146.900 192.887,147.854 193.076,147.920 193.011 C 148.141 192.794,145.493 192.000,144.640 192.027 C 144.178 192.042,144.700 192.296,145.800 192.592 M165.398 192.802 C 164.375 193.932,164.810 194.037,165.886 192.920 C 166.373 192.414,166.626 192.000,166.448 192.000 C 166.270 192.000,165.797 192.361,165.398 192.802 M254.056 192.764 C 254.952 193.489,255.012 193.840,255.240 199.664 L 255.480 205.800 255.440 199.741 C 255.399 193.600,254.997 192.000,253.494 192.000 C 253.283 192.000,253.536 192.344,254.056 192.764 M164.582 210.400 C 164.582 219.310,164.635 222.955,164.700 218.500 C 164.764 214.045,164.764 206.755,164.700 202.300 C 164.635 197.845,164.582 201.490,164.582 210.400 M259.782 211.200 C 259.782 219.890,259.835 223.445,259.900 219.100 C 259.964 214.755,259.964 207.645,259.900 203.300 C 259.835 198.955,259.782 202.510,259.782 211.200 M64.971 206.000 C 64.971 210.950,65.028 212.975,65.099 210.500 C 65.169 208.025,65.169 203.975,65.099 201.500 C 65.028 199.025,64.971 201.050,64.971 206.000 M254.287 207.032 C 253.750 207.749,253.718 207.930,254.156 207.761 C 254.476 207.639,254.846 207.256,254.978 206.912 C 255.352 205.937,255.069 205.986,254.287 207.032 M100.929 208.300 C 108.811 208.361,121.591 208.361,129.329 208.300 C 137.068 208.239,130.620 208.189,115.000 208.190 C 99.380 208.190,93.048 208.239,100.929 208.300 M200.300 208.300 C 210.035 208.360,225.965 208.360,235.700 208.300 C 245.435 208.240,237.470 208.191,218.000 208.191 C 198.530 208.191,190.565 208.240,200.300 208.300 M293.330 208.300 C 302.531 208.360,317.471 208.360,326.530 208.300 C 335.588 208.240,328.060 208.191,309.800 208.191 C 291.540 208.191,284.128 208.240,293.330 208.300 M344.291 208.289 C 345.001 208.377,346.261 208.379,347.091 208.292 C 347.921 208.205,347.340 208.133,345.800 208.131 C 344.260 208.129,343.581 208.200,344.291 208.289 M275.444 210.000 C 275.879 212.501,276.640 212.810,282.144 212.724 L 287.000 212.647 282.000 212.424 C 276.595 212.182,276.003 212.010,275.994 210.676 C 275.991 210.194,275.811 209.530,275.594 209.200 C 275.316 208.776,275.272 209.010,275.444 210.000 M144.832 210.404 C 144.740 212.160,144.357 212.189,118.000 212.405 L 93.000 212.609 118.000 212.690 L 143.000 212.771 144.149 211.832 C 144.790 211.308,145.201 210.651,145.080 210.346 C 144.910 209.919,144.856 209.931,144.832 210.404 M184.800 212.400 L 180.600 212.643 184.676 212.722 C 187.051 212.767,188.856 212.633,189.000 212.400 C 189.136 212.180,189.192 212.035,189.124 212.078 C 189.056 212.121,187.110 212.266,184.800 212.400 M74.500 212.676 C 74.885 212.776,75.515 212.776,75.900 212.676 C 76.285 212.575,75.970 212.493,75.200 212.493 C 74.430 212.493,74.115 212.575,74.500 212.676 M81.300 212.698 C 83.445 212.770,86.955 212.770,89.100 212.698 C 91.245 212.626,89.490 212.567,85.200 212.567 C 80.910 212.567,79.155 212.626,81.300 212.698 M204.129 212.700 C 212.231 212.760,225.371 212.760,233.329 212.700 C 241.288 212.639,234.660 212.590,218.600 212.590 C 202.540 212.590,196.028 212.639,204.129 212.700 M297.127 212.700 C 302.258 212.763,310.538 212.763,315.527 212.700 C 320.517 212.636,316.320 212.584,306.200 212.584 C 296.080 212.584,291.997 212.636,297.127 212.700 M333.100 212.698 C 335.135 212.771,338.465 212.771,340.500 212.698 C 342.535 212.625,340.870 212.566,336.800 212.566 C 332.730 212.566,331.065 212.625,333.100 212.698 M347.598 212.697 C 348.368 212.789,349.268 213.076,349.598 213.333 C 350.122 213.740,350.129 213.710,349.651 213.100 C 349.286 212.635,348.615 212.421,347.651 212.464 L 346.200 212.528 347.598 212.697 M255.358 220.200 C 255.358 223.280,255.421 224.487,255.497 222.882 C 255.573 221.278,255.573 218.758,255.496 217.282 C 255.419 215.807,255.357 217.120,255.358 220.200 M69.693 216.800 C 69.693 217.570,69.775 217.885,69.876 217.500 C 69.976 217.115,69.976 216.485,69.876 216.100 C 69.775 215.715,69.693 216.030,69.693 216.800 M64.944 221.600 C 64.944 223.690,65.012 224.545,65.094 223.500 C 65.176 222.455,65.176 220.745,65.094 219.700 C 65.012 218.655,64.944 219.510,64.944 221.600 M164.800 227.085 C 164.800 227.434,166.399 228.538,166.600 228.328 C 166.667 228.257,166.289 227.877,165.761 227.481 C 165.232 227.086,164.800 226.908,164.800 227.085 M132.691 228.289 C 133.401 228.377,134.661 228.379,135.491 228.292 C 136.321 228.205,135.740 228.133,134.200 228.131 C 132.660 228.129,131.981 228.200,132.691 228.289 M144.105 228.287 C 144.714 228.379,145.614 228.377,146.105 228.282 C 146.597 228.187,146.100 228.111,145.000 228.114 C 143.900 228.117,143.497 228.195,144.105 228.287 " stroke="none" fill="#54546c" fill-rule="evenodd"></path><path id="path7" d="M49.614 171.974 C 49.340 172.486,49.200 182.070,49.200 200.294 C 49.200 227.880,49.242 228.800,50.509 228.800 C 50.700 228.800,50.574 228.517,50.229 228.171 C 49.401 227.344,49.257 172.903,50.080 172.080 C 50.616 171.544,63.462 171.387,64.240 171.906 C 65.581 172.801,65.630 173.811,65.609 199.830 C 65.584 229.952,65.787 228.275,62.129 228.504 L 59.800 228.649 62.238 228.724 C 66.813 228.866,66.531 232.439,66.407 175.894 C 66.397 171.377,66.046 171.203,56.914 171.201 C 50.515 171.200,49.999 171.255,49.614 171.974 M101.270 171.500 C 111.758 171.559,129.038 171.559,139.670 171.500 C 150.301 171.441,141.720 171.392,120.600 171.392 C 99.480 171.392,90.781 171.441,101.270 171.500 M164.800 171.717 L 163.800 172.223 163.691 179.279 C 163.583 186.252,163.593 186.347,164.556 187.467 L 165.531 188.600 208.865 188.715 C 256.785 188.843,254.407 188.930,255.596 187.007 C 257.014 184.713,256.855 173.381,255.387 172.100 L 254.355 171.200 210.078 171.206 C 175.202 171.211,165.588 171.319,164.800 171.717 M259.804 171.853 C 258.763 172.894,259.071 186.755,260.162 187.959 L 260.924 188.800 305.213 188.800 C 353.716 188.800,350.195 188.989,350.611 186.362 L 350.826 185.000 350.313 186.400 C 349.603 188.337,352.107 188.244,303.785 188.129 L 261.000 188.027 260.300 187.169 C 259.425 186.097,259.233 172.927,260.080 172.080 C 260.795 171.365,349.325 171.385,349.913 172.100 C 350.139 172.375,350.406 173.050,350.507 173.600 C 350.672 174.495,350.697 174.472,350.746 173.380 C 350.848 171.079,353.377 171.200,305.149 171.200 C 264.351 171.200,260.400 171.257,259.804 171.853 M79.680 172.080 C 78.924 172.836,79.121 173.394,79.900 172.703 C 80.285 172.362,80.960 171.995,81.400 171.888 C 82.050 171.729,82.008 171.684,81.180 171.646 C 80.619 171.621,79.944 171.816,79.680 172.080 M159.700 172.032 C 160.192 172.318,160.419 172.999,160.464 174.320 C 160.517 175.876,160.557 175.967,160.693 174.845 C 160.927 172.933,160.513 171.598,159.692 171.612 C 159.041 171.624,159.041 171.648,159.700 172.032 M255.038 172.442 C 255.989 173.492,256.400 183.669,255.572 185.667 C 254.440 188.401,258.059 188.204,209.807 188.162 L 166.267 188.124 165.133 186.856 L 164.000 185.587 164.000 179.648 C 164.000 174.244,164.075 173.613,164.829 172.654 L 165.658 171.600 209.967 171.600 L 254.276 171.600 255.038 172.442 M75.862 173.931 C 75.498 174.334,75.200 174.818,75.200 175.008 C 75.200 175.198,75.425 175.045,75.700 174.668 C 75.976 174.292,76.741 173.823,77.400 173.626 C 78.571 173.278,78.575 173.268,77.562 173.234 C 76.991 173.215,76.226 173.529,75.862 173.931 M73.200 176.200 C 72.991 176.750,72.557 177.200,72.237 177.200 C 71.631 177.200,70.949 178.682,71.363 179.097 C 71.494 179.227,71.600 179.109,71.600 178.835 C 71.600 178.561,72.335 177.631,73.233 176.769 C 74.304 175.739,74.644 175.200,74.223 175.200 C 73.869 175.200,73.409 175.650,73.200 176.200 M160.493 178.800 C 160.493 179.570,160.575 179.885,160.676 179.500 C 160.776 179.115,160.776 178.485,160.676 178.100 C 160.575 177.715,160.493 178.030,160.493 178.800 M69.572 180.674 C 69.347 181.264,69.237 182.119,69.327 182.574 C 69.450 183.194,69.505 183.125,69.546 182.300 C 69.575 181.695,69.960 180.840,70.400 180.400 C 71.034 179.766,71.073 179.600,70.590 179.600 C 70.255 179.600,69.796 180.083,69.572 180.674 M160.467 184.856 C 160.430 185.656,160.068 186.722,159.662 187.223 L 158.924 188.135 122.895 188.167 C 103.079 188.185,86.735 188.331,86.575 188.492 C 86.214 188.853,156.561 188.908,158.358 188.548 C 160.043 188.211,160.896 186.889,160.693 184.931 L 160.534 183.400 160.467 184.856 M68.168 185.414 C 67.303 187.485,67.343 193.348,68.232 194.705 C 69.133 196.081,69.427 195.486,68.652 193.854 C 67.828 192.118,67.818 189.157,68.627 186.433 C 69.376 183.912,69.075 183.244,68.168 185.414 M84.800 189.976 C 84.800 190.761,85.476 191.457,85.863 191.070 C 86.177 190.756,85.603 189.200,85.173 189.200 C 84.968 189.200,84.800 189.549,84.800 189.976 M116.600 191.586 C 144.563 191.785,146.690 191.849,147.927 192.524 C 149.649 193.464,150.540 193.172,149.010 192.169 C 147.878 191.427,146.743 191.399,117.218 191.386 L 86.600 191.372 116.600 191.586 M165.690 191.481 C 163.579 191.892,163.550 192.152,163.578 210.466 C 163.607 228.935,163.595 228.841,165.944 228.784 C 166.381 228.773,166.250 228.578,165.553 228.199 C 164.046 227.380,164.000 226.824,164.000 209.519 L 164.000 193.938 165.169 192.769 L 166.338 191.600 210.069 191.606 C 234.121 191.609,253.990 191.744,254.223 191.906 C 256.538 193.514,256.891 205.769,254.690 208.095 C 254.640 208.147,237.950 208.282,217.600 208.395 L 180.600 208.600 180.561 209.600 C 180.528 210.470,180.544 210.483,180.688 209.700 L 180.853 208.800 217.604 208.800 L 254.355 208.800 255.462 207.848 L 256.570 206.895 256.491 199.965 C 256.418 193.577,256.348 192.970,255.595 192.217 C 254.824 191.446,169.458 190.747,165.690 191.481 M260.313 191.471 C 259.624 191.654,258.864 194.197,259.352 194.685 C 259.488 194.822,259.600 194.481,259.600 193.929 C 259.600 191.451,256.701 191.599,305.031 191.606 C 350.942 191.613,349.824 191.567,350.383 193.434 C 350.715 194.546,350.733 194.554,350.759 193.600 C 350.826 191.244,354.047 191.405,305.515 191.344 C 281.032 191.313,260.691 191.370,260.313 191.471 M151.516 193.560 C 152.240 193.750,153.185 194.225,153.616 194.615 C 154.047 195.005,154.400 195.138,154.400 194.911 C 154.400 194.186,153.317 193.566,151.736 193.388 C 150.218 193.216,150.215 193.218,151.516 193.560 M156.391 196.790 C 157.248 197.665,158.135 198.700,158.363 199.090 C 158.692 199.657,158.778 199.677,158.788 199.189 C 158.795 198.853,158.305 198.109,157.700 197.535 C 157.095 196.962,156.368 196.202,156.084 195.846 C 155.801 195.491,155.403 195.200,155.200 195.200 C 154.997 195.200,155.533 195.916,156.391 196.790 M259.295 211.326 C 259.199 227.446,259.304 228.800,260.658 228.800 C 261.150 228.800,261.102 228.646,260.442 228.100 C 259.609 227.411,259.594 227.145,259.493 211.400 L 259.391 195.400 259.295 211.326 M69.423 198.000 C 69.547 199.071,69.932 200.043,70.373 200.400 C 70.781 200.730,71.236 201.405,71.384 201.900 C 71.533 202.395,71.811 202.800,72.003 202.800 C 72.374 202.800,71.865 201.713,70.641 199.890 C 70.230 199.279,69.742 198.199,69.555 197.490 C 69.271 196.413,69.250 196.498,69.423 198.000 M158.800 200.351 C 158.800 200.530,159.160 201.002,159.600 201.400 C 160.040 201.798,160.414 202.501,160.432 202.962 C 160.449 203.427,160.556 203.569,160.672 203.280 C 160.953 202.577,160.063 200.510,159.363 200.241 C 159.054 200.122,158.800 200.172,158.800 200.351 M73.149 203.478 C 73.399 203.960,73.795 204.473,74.029 204.618 C 74.825 205.110,74.645 204.602,73.668 203.600 C 72.785 202.694,72.736 202.683,73.149 203.478 M75.200 205.102 C 75.200 205.852,76.413 206.802,77.329 206.768 C 77.913 206.747,78.002 206.665,77.600 206.518 C 77.270 206.397,76.595 205.930,76.100 205.479 C 75.605 205.029,75.200 204.859,75.200 205.102 M350.400 206.520 C 350.400 208.462,351.631 208.400,313.353 208.400 C 274.734 208.400,276.000 208.347,276.000 209.963 C 276.000 212.088,274.380 212.000,313.299 212.000 L 349.639 212.000 350.204 213.300 C 350.629 214.279,350.773 214.397,350.784 213.776 C 350.830 211.399,353.286 211.550,313.385 211.472 L 277.000 211.400 276.875 210.100 L 276.749 208.800 313.146 208.800 C 345.701 208.800,349.609 208.734,350.171 208.171 C 350.743 207.600,351.077 205.600,350.600 205.600 C 350.490 205.600,350.400 206.014,350.400 206.520 M160.987 210.214 C 160.974 213.615,161.035 213.936,161.587 213.385 C 162.429 212.543,162.438 207.867,161.600 207.029 C 161.067 206.496,160.999 206.850,160.987 210.214 M79.600 207.151 C 79.600 208.576,80.132 208.600,112.161 208.613 L 143.400 208.626 112.542 208.413 C 83.891 208.215,81.628 208.150,80.910 207.500 C 80.062 206.732,79.600 206.609,79.600 207.151 M143.526 210.092 L 143.400 211.400 106.872 211.448 C 79.432 211.484,70.227 211.613,69.872 211.967 C 69.228 212.610,68.977 226.835,69.590 227.980 C 69.935 228.627,70.385 228.786,71.714 228.736 C 73.336 228.674,73.347 228.666,72.002 228.503 C 71.232 228.411,70.377 228.147,70.102 227.918 C 69.391 227.329,69.390 213.640,70.100 212.669 C 70.566 212.032,73.098 211.986,106.701 211.996 C 145.066 212.007,144.400 212.040,144.400 210.127 C 144.400 208.698,143.663 208.668,143.526 210.092 M184.800 211.600 C 182.490 211.710,197.153 211.890,217.384 212.000 L 254.168 212.200 255.116 213.600 C 257.182 216.652,256.035 228.400,253.671 228.400 C 253.339 228.400,253.181 228.514,253.321 228.654 C 253.733 229.066,255.957 227.971,256.160 227.257 C 257.007 224.272,256.531 213.797,255.493 212.590 L 254.586 211.536 221.793 211.468 C 203.757 211.431,187.110 211.490,184.800 211.600 M160.446 217.446 C 160.421 217.911,160.027 218.766,159.571 219.346 C 158.936 220.153,158.878 220.400,159.322 220.400 C 160.030 220.400,160.942 218.340,160.682 217.332 C 160.521 216.708,160.486 216.725,160.446 217.446 M158.432 221.280 C 158.414 221.654,158.085 222.144,157.700 222.368 C 157.315 222.592,157.203 222.781,157.451 222.788 C 158.111 222.806,158.909 221.709,158.669 221.113 C 158.537 220.783,158.452 220.842,158.432 221.280 M155.823 224.233 C 155.174 224.707,155.154 224.800,155.700 224.800 C 156.059 224.800,156.471 224.608,156.616 224.373 C 157.040 223.687,156.661 223.620,155.823 224.233 M154.400 225.187 C 154.400 225.400,153.905 225.843,153.300 226.171 C 152.564 226.571,152.422 226.773,152.871 226.784 C 153.588 226.801,154.800 225.788,154.800 225.171 C 154.800 224.967,154.710 224.800,154.600 224.800 C 154.490 224.800,154.400 224.974,154.400 225.187 M350.460 226.471 C 350.427 227.061,350.117 227.826,349.771 228.171 C 349.426 228.517,349.314 228.800,349.522 228.800 C 350.259 228.800,350.856 227.635,350.689 226.524 L 350.520 225.400 350.460 226.471 M149.625 227.521 C 149.051 227.921,147.490 228.297,145.825 228.435 L 143.000 228.671 145.874 228.735 C 149.011 228.806,150.558 228.407,150.933 227.431 C 151.239 226.633,150.862 226.659,149.625 227.521 M53.705 228.687 C 54.314 228.779,55.214 228.777,55.705 228.682 C 56.197 228.587,55.700 228.511,54.600 228.514 C 53.500 228.517,53.097 228.595,53.705 228.687 M131.900 228.697 C 133.495 228.773,136.105 228.773,137.700 228.697 C 139.295 228.621,137.990 228.559,134.800 228.559 C 131.610 228.559,130.305 228.621,131.900 228.697 M246.500 228.676 C 246.885 228.776,247.515 228.776,247.900 228.676 C 248.285 228.575,247.970 228.493,247.200 228.493 C 246.430 228.493,246.115 228.575,246.500 228.676 " stroke="none" fill="#34344c" fill-rule="evenodd"></path><path id="path8" d="M65.083 171.967 C 66.324 172.741,66.370 172.869,66.502 175.884 L 66.639 179.000 66.720 175.524 C 66.805 171.812,66.822 171.852,65.000 171.438 L 63.800 171.166 65.083 171.967 M78.100 171.898 C 76.509 172.690,76.432 173.200,77.904 173.200 C 78.562 173.200,79.203 172.888,79.491 172.426 C 79.759 171.996,80.557 171.581,81.287 171.490 C 82.487 171.342,82.462 171.325,81.000 171.290 C 80.120 171.268,78.815 171.542,78.100 171.898 M159.400 171.472 C 159.840 171.593,160.349 171.897,160.530 172.146 C 160.749 172.446,160.806 172.396,160.699 172.000 C 160.610 171.670,160.101 171.367,159.569 171.326 C 158.805 171.268,158.769 171.299,159.400 171.472 M163.680 171.680 C 163.341 172.019,163.200 174.364,163.200 179.680 C 163.200 187.878,163.464 188.838,165.700 188.775 L 166.600 188.749 165.723 188.396 C 163.787 187.616,163.572 186.640,163.690 179.167 L 163.800 172.223 164.800 171.717 C 165.695 171.265,165.714 171.211,164.980 171.206 C 164.529 171.203,163.944 171.416,163.680 171.680 M255.387 172.100 C 257.747 174.159,256.661 187.850,254.084 188.527 C 253.651 188.641,253.775 188.724,254.424 188.754 C 256.757 188.859,256.863 188.489,256.911 180.032 C 256.951 172.894,256.897 172.260,256.201 171.751 C 254.942 170.831,254.265 171.121,255.387 172.100 M75.345 173.800 C 75.218 174.130,74.860 174.400,74.549 174.400 C 73.460 174.400,70.800 176.390,70.800 177.205 C 70.800 177.642,70.980 178.000,71.200 178.000 C 71.420 178.000,71.600 177.820,71.600 177.600 C 71.600 177.380,71.874 177.200,72.210 177.200 C 72.545 177.200,72.991 176.750,73.200 176.200 C 73.409 175.650,73.900 175.194,74.290 175.187 C 75.041 175.174,76.745 173.200,76.006 173.200 C 75.769 173.200,75.471 173.470,75.345 173.800 M66.569 193.000 C 66.575 205.327,66.603 205.949,66.800 198.200 C 66.923 193.360,67.063 190.665,67.112 192.211 C 67.196 194.906,67.902 196.800,68.823 196.800 C 69.427 196.800,69.262 196.051,68.400 194.884 C 67.212 193.276,67.190 187.499,68.362 185.078 C 69.463 182.803,69.470 181.952,68.378 183.044 C 67.830 183.593,67.464 184.654,67.278 186.233 C 67.025 188.391,66.981 188.177,66.780 183.800 C 66.660 181.160,66.564 185.300,66.569 193.000 M69.350 179.787 C 69.226 180.110,69.217 180.605,69.331 180.887 C 69.458 181.204,69.549 181.128,69.568 180.687 C 69.586 180.295,70.005 179.811,70.500 179.612 L 71.400 179.251 70.487 179.225 C 69.986 179.211,69.474 179.464,69.350 179.787 M259.232 187.020 C 259.199 187.873,259.881 188.800,260.542 188.800 C 260.752 188.800,260.650 188.485,260.314 188.100 C 259.979 187.715,259.605 187.130,259.484 186.800 C 259.329 186.378,259.254 186.443,259.232 187.020 M160.114 187.566 C 159.848 187.992,159.219 188.419,158.715 188.516 C 158.042 188.645,158.146 188.705,159.113 188.746 C 159.937 188.780,160.509 188.582,160.650 188.213 C 161.029 187.227,160.628 186.743,160.114 187.566 M350.138 187.813 C 349.879 188.365,349.841 188.800,350.050 188.800 C 350.495 188.800,350.934 187.795,350.738 187.226 C 350.662 187.006,350.392 187.270,350.138 187.813 M85.371 189.429 C 85.717 189.774,86.000 190.314,86.000 190.629 C 86.000 190.943,86.180 191.200,86.400 191.200 C 86.620 191.200,86.800 190.876,86.800 190.480 C 86.800 190.084,87.016 189.544,87.280 189.280 C 87.653 188.907,87.425 188.800,86.251 188.800 C 84.880 188.800,84.800 188.857,85.371 189.429 M147.299 191.583 C 148.123 191.743,149.159 192.201,149.601 192.601 C 150.043 193.001,150.539 193.194,150.702 193.030 C 151.324 192.406,149.128 191.200,147.456 191.246 L 145.800 191.292 147.299 191.583 M164.000 192.000 C 163.559 192.441,163.216 193.293,163.236 193.900 L 163.272 195.000 163.634 193.750 C 164.035 192.370,164.594 191.786,165.800 191.489 C 166.525 191.311,166.515 191.288,165.700 191.246 C 165.205 191.221,164.440 191.560,164.000 192.000 M254.614 191.581 C 256.140 192.199,256.390 192.952,256.432 197.066 C 256.454 199.263,256.633 201.677,256.829 202.430 C 257.079 203.390,257.128 202.675,256.993 200.039 C 256.887 197.970,256.800 195.418,256.800 194.367 C 256.800 192.250,256.078 191.184,254.671 191.225 C 253.821 191.250,253.819 191.259,254.614 191.581 M259.338 191.817 C 259.208 192.157,259.213 192.547,259.351 192.684 C 259.488 192.821,259.600 192.647,259.600 192.296 C 259.600 191.945,259.915 191.576,260.300 191.476 C 260.956 191.304,260.955 191.290,260.287 191.246 C 259.896 191.221,259.468 191.478,259.338 191.817 M153.066 193.600 C 153.542 193.792,154.122 194.275,154.354 194.674 C 154.692 195.256,154.778 195.277,154.788 194.780 C 154.805 193.912,153.990 193.195,153.020 193.225 C 152.225 193.250,152.226 193.261,153.066 193.600 M163.295 211.857 C 163.210 226.551,163.268 228.340,163.833 228.557 C 165.014 229.011,165.292 228.802,164.442 228.100 C 163.609 227.411,163.594 227.145,163.493 211.400 L 163.391 195.400 163.295 211.857 M157.823 197.767 C 158.661 198.380,159.040 198.313,158.616 197.627 C 158.471 197.392,158.059 197.200,157.700 197.200 C 157.154 197.200,157.174 197.293,157.823 197.767 M69.246 199.500 C 69.208 200.585,69.345 200.800,70.076 200.800 C 70.854 200.800,70.880 200.743,70.310 200.300 C 69.957 200.025,69.583 199.440,69.480 199.000 C 69.361 198.491,69.276 198.673,69.246 199.500 M158.800 199.580 C 158.800 199.789,159.041 200.104,159.335 200.280 C 159.630 200.456,160.075 200.960,160.323 201.400 C 160.852 202.336,161.039 201.087,160.557 199.833 C 160.298 199.157,158.800 198.942,158.800 199.580 M71.466 202.733 C 71.540 203.026,71.600 203.402,71.600 203.569 C 71.600 203.838,73.341 204.800,73.828 204.800 C 73.933 204.800,73.724 204.350,73.363 203.800 C 73.003 203.250,72.474 202.800,72.187 202.800 C 71.901 202.800,71.591 202.665,71.499 202.500 C 71.407 202.335,71.392 202.440,71.466 202.733 M256.472 205.471 C 256.417 206.749,256.152 207.337,255.346 207.971 C 254.395 208.719,254.371 208.800,255.097 208.800 C 256.365 208.800,256.861 207.848,256.695 205.731 L 256.544 203.800 256.472 205.471 M74.758 205.700 C 74.941 206.195,75.417 206.664,75.817 206.743 C 76.497 206.877,76.501 206.844,75.872 206.215 C 75.502 205.845,75.200 205.376,75.200 205.171 C 75.200 204.967,75.026 204.800,74.813 204.800 C 74.580 204.800,74.558 205.158,74.758 205.700 M160.800 205.481 C 160.800 205.842,161.115 206.485,161.500 206.910 C 162.010 207.475,162.200 208.365,162.200 210.200 C 162.200 212.035,162.010 212.925,161.500 213.490 C 161.115 213.915,160.800 214.685,160.800 215.201 L 160.800 216.139 161.800 215.200 C 163.509 213.595,163.208 205.749,161.411 205.060 C 161.016 204.908,160.800 205.057,160.800 205.481 M78.800 207.026 C 78.800 208.084,79.759 208.795,81.114 208.740 C 82.344 208.690,82.408 208.651,81.486 208.512 C 80.873 208.420,80.155 207.997,79.890 207.572 C 79.436 206.845,78.800 206.527,78.800 207.026 M66.397 217.059 C 66.214 226.398,66.143 227.181,65.401 228.000 L 64.602 228.882 65.601 228.741 C 66.789 228.573,67.171 223.476,66.797 212.800 C 66.605 207.329,66.582 207.570,66.397 217.059 M143.254 209.898 L 143.200 211.195 111.100 211.300 L 79.000 211.405 111.113 211.502 C 145.856 211.608,143.905 211.727,143.486 209.529 C 143.351 208.820,143.296 208.908,143.254 209.898 M276.900 210.100 L 277.000 211.400 310.700 211.403 L 344.400 211.407 310.825 211.301 L 277.250 211.195 277.025 209.998 C 276.804 208.821,276.802 208.823,276.900 210.100 M184.800 211.216 C 182.490 211.335,195.540 211.430,213.800 211.427 C 232.060 211.424,243.400 211.372,239.000 211.312 C 221.373 211.071,188.752 211.013,184.800 211.216 M69.611 211.787 C 69.343 212.109,69.217 212.604,69.331 212.887 C 69.463 213.217,69.548 213.158,69.568 212.720 C 69.586 212.346,69.915 211.856,70.300 211.632 C 70.685 211.408,70.797 211.219,70.549 211.212 C 70.301 211.205,69.879 211.464,69.611 211.787 M73.100 211.482 C 73.595 211.578,74.405 211.578,74.900 211.482 C 75.395 211.387,74.990 211.309,74.000 211.309 C 73.010 211.309,72.605 211.387,73.100 211.482 M249.900 211.482 C 250.395 211.578,251.205 211.578,251.700 211.482 C 252.195 211.387,251.790 211.309,250.800 211.309 C 249.810 211.309,249.405 211.387,249.900 211.482 M253.858 211.477 C 255.716 211.840,256.185 212.984,256.426 217.740 L 256.652 222.200 256.726 217.323 C 256.807 211.955,256.435 211.124,254.011 211.254 C 253.130 211.302,253.111 211.331,253.858 211.477 M346.100 211.476 C 346.485 211.576,347.115 211.576,347.500 211.476 C 347.885 211.375,347.570 211.293,346.800 211.293 C 346.030 211.293,345.715 211.375,346.100 211.476 M349.900 211.933 C 350.698 212.769,351.009 212.721,350.662 211.817 C 350.532 211.478,350.149 211.200,349.813 211.200 C 349.294 211.200,349.308 211.313,349.900 211.933 M160.208 219.574 C 160.073 220.000,159.656 220.429,159.281 220.528 C 158.885 220.632,159.059 220.727,159.700 220.754 C 160.619 220.792,160.800 220.635,160.800 219.800 C 160.800 218.605,160.547 218.508,160.208 219.574 M157.731 222.561 C 157.253 222.782,156.785 223.368,156.690 223.864 C 156.475 224.987,157.714 224.482,158.423 223.157 C 158.964 222.146,158.847 222.045,157.731 222.561 M256.394 225.100 C 256.387 227.190,256.189 227.648,255.000 228.322 C 254.251 228.747,254.269 228.776,255.276 228.788 C 256.616 228.803,256.646 228.749,256.994 225.700 C 257.190 223.978,257.142 223.200,256.839 223.200 C 256.583 223.200,256.397 223.990,256.394 225.100 M154.800 225.171 C 154.800 225.376,154.517 225.826,154.171 226.171 C 153.600 226.743,153.600 226.800,154.171 226.800 C 154.517 226.800,154.800 226.595,154.800 226.344 C 154.800 226.093,155.115 225.649,155.500 225.357 C 156.167 224.851,156.167 224.825,155.500 224.813 C 155.115 224.806,154.800 224.967,154.800 225.171 M150.932 227.433 C 150.798 227.782,150.309 228.220,149.844 228.408 C 149.021 228.741,149.020 228.750,149.811 228.775 C 150.714 228.803,152.400 227.763,152.400 227.177 C 152.400 226.546,151.192 226.757,150.932 227.433 " stroke="none" fill="#1c1c34" fill-rule="evenodd"></path></g></svg>